# xmcd CD database file
#
# Track frame offsets:
#	150
#	11772
#	24928
#	38089
#	50685
#	62418
#	75684
#	89647
#	104740
#	118439
#	131838
#	143432
#	157264
#	173140
#	187131
#	199623
#	213231
#	226442
#	239064
#	253549
#	268283
#	281428
#	296693
#	310769
#	324661
#	337813
#
# Disc length: 4691 seconds
#
# Revision: 0
# Processed by: cddbd v1.5.2PL0 Copyright (c) Steve Scherf et al.
# Submitted via: CDex 1.60beta1-cs1
#
DISCID=8d12511a
DTITLE=Quintette Du Hot Club De France - Swinging Paris
DYEAR=2013
DGENRE=Jazz
TTITLE0=Swing From Paris
TTITLE1=Ain´t Misbehavin
TTITLE2=Liza
TTITLE3=Limehouse Blues
TTITLE4=Night And Day
TTITLE5=Billets Doux
TTITLE6=It Don´t Mean A Thing
TTITLE7=Swing 39
TTITLE8=China Boy
TTITLE9=I Got Rhythem
TTITLE10=Belleville
TTITLE11=Them There Eyes
TTITLE12=St. Louis Blues
TTITLE13=I´ve Found A New Baby
TTITLE14=The Lambeth Walk
TTITLE15=Chasing Shadows
TTITLE16=You´re Driving Me Crazy
TTITLE17=Souvenirs
TTITLE18=Daphne
TTITLE19=Nocturne
TTITLE20=Djangology
TTITLE21=Ultrafox
TTITLE22=Black And White
TTITLE23=Nuages
TTITLE24=Honeysuckle Rose
TTITLE25=Sweet Georgia Brown
EXTD=YEAR: 2013
EXTT0=
EXTT1=
EXTT2=
EXTT3=
EXTT4=
EXTT5=
EXTT6=
EXTT7=
EXTT8=
EXTT9=
EXTT10=
EXTT11=
EXTT12=
EXTT13=
EXTT14=
EXTT15=
EXTT16=
EXTT17=
EXTT18=
EXTT19=
EXTT20=
EXTT21=
EXTT22=
EXTT23=
EXTT24=
EXTT25=
PLAYORDER=
